<svg id="visual" viewBox="0 0 960 540" width="960" height="540" xmlns="http://www.w3.org/2000/svg" xmlns:xlink="http://www.w3.org/1999/xlink" version="1.1"><rect x="0" y="0" width="960" height="540" fill="#2E5D9F"></rect><path d="M0 351L22.8 361.2C45.7 371.3 91.3 391.7 137 391.2C182.7 390.7 228.3 369.3 274 359.3C319.7 349.3 365.3 350.7 411.2 361.5C457 372.3 503 392.7 548.8 385.8C594.7 379 640.3 345 686 349.8C731.7 354.7 777.3 398.3 823 400.2C868.7 402 914.3 362 937.2 342L960 322L960 541L937.2 541C914.3 541 868.7 541 823 541C777.3 541 731.7 541 686 541C640.3 541 594.7 541 548.8 541C503 541 457 541 411.2 541C365.3 541 319.7 541 274 541C228.3 541 182.7 541 137 541C91.3 541 45.7 541 22.8 541L0 541Z" fill="#d1d0d0" stroke-linecap="round" stroke-linejoin="miter"></path></svg>